# xmcd CD database file
#
# Track frame offsets:
#	150
#	15973
#	30878
#	42358
#	54871
#	67733
#	79118
#	93288
#	107203
#	121106
#	134624
#	147354
#	159449
#	171637
#	183403
#	196869
#	209582
#	222115
#	234450
#	245466
#	261728
#	279615
#	296803
#	310566
#	329528
#
# Disc length: 4602 seconds
#
# Revision: 0
# Processed by: cddbd v1.5.2PL0 Copyright (c) Steve Scherf et al.
# Submitted via: CDex 1.51
#
DISCID=6a11f819
DTITLE=Sam Taylor - Sam Taylor - Saxphone 7-8-10 波麗唱片
DYEAR=2012
DGENRE=Jazz
TTITLE0=Saxophone 7 波麗唱片 - 昭和年代的柯芒草
TTITLE1=Saxophone 7 波麗唱片 - 懷念的枕頭
TTITLE2=Saxophone 7 波麗唱片 - 心戀
TTITLE3=Saxophone 7 波麗唱片 - 千曲川
TTITLE4=Saxophone 7 波麗唱片 - 回到北方
TTITLE5=Saxophone 7 波麗唱片 - 我倆的旅途
TTITLE6=Saxophone 7 波麗唱片 - 深夜劇場
TTITLE7=Saxophone 7 波麗唱片 - 花車
TTITLE8=Saxphone 8 波麗唱片 - 國際線的候機室
TTITLE9=Saxphone 8 波麗唱片 - 幾時再回頭
TTITLE10=Saxphone 8 波麗唱片 - 獨睡的搖兒歌
TTITLE11=Saxphone 8 波麗唱片 - 長崎今天還是下著雨
TTITLE12=Saxphone 8 波麗唱片 - 新宿之女人
TTITLE13=Saxphone 8 波麗唱片 - 淡水河邊
TTITLE14=Saxphone 8 波麗唱片 - 港都布震斯
TTITLE15=Saxphone 8 波麗唱片 - 夜晚的柳瀨
TTITLE16=Saxphone 8 波麗唱片 - 執著的愛
TTITLE17=Saxphone 8 波麗唱片 - 現在是否幸福
TTITLE18=Saxphone 8 波麗唱片 - 花與淪
TTITLE19=Saxphone 10 波麗唱片 - 化妝舞會上的相遇
TTITLE20=Saxphone 10 波麗唱片 - 大阪的陣雨
TTITLE21=Saxphone 10 波麗唱片 - 流浪之歌
TTITLE22=Saxphone 10 波麗唱片 - 黃昏的故鄉
TTITLE23=Saxphone 10 波麗唱片 - 冰雨
TTITLE24=Saxphone 10 波麗唱片 - 北國之春
EXTD=YEAR: 2012
EXTT0=
EXTT1=
EXTT2=
EXTT3=
EXTT4=
EXTT5=
EXTT6=
EXTT7=
EXTT8=
EXTT9=
EXTT10=
EXTT11=
EXTT12=
EXTT13=
EXTT14=
EXTT15=
EXTT16=
EXTT17=
EXTT18=
EXTT19=
EXTT20=
EXTT21=
EXTT22=
EXTT23=
EXTT24=
PLAYORDER=
